<?xml version="1.0" encoding="utf-8"?>
<!-- Generator: Adobe Illustrator 24.2.0, SVG Export Plug-In . SVG Version: 6.00 Build 0)  -->
<svg version="1.1" id="Layer_1" xmlns="http://www.w3.org/2000/svg" x="0px" y="0px"
     viewBox="0 0 231.36 171.7" style="enable-background:new 0 0 231.36 171.7;" xml:space="preserve">
<style type="text/css">
	.st0{fill:#FFFFFF;}
	@media (max-width: 600px){
	.st0{fill:#d5e1e8;}
	}
</style>
<path class="st0" d="M180.33,89.1c-0.08,0-0.16,0.02-0.24,0.02c1.54-3.57,2.41-7.5,2.41-11.63c0-16.21-13.14-29.35-29.35-29.35
	c-5.73,0-11.06,1.67-15.57,4.5c-6.11-14.85-20.71-25.31-37.76-25.31c-22.55,0-40.83,18.28-40.83,40.83c0,1.7,0.14,3.37,0.34,5.02
	c-0.11,0-0.23-0.02-0.34-0.02c-15.12,0-27.38,12.26-27.38,27.38s12.26,27.38,27.38,27.38h121.35c10.72,0,19.42-8.69,19.42-19.41
	C199.75,97.8,191.06,89.1,180.33,89.1z"/>
</svg>
