<svg xmlns="http://www.w3.org/2000/svg" xmlns:xlink="http://www.w3.org/1999/xlink" viewBox="0 0 500 500.02"><defs><style>.cls-1{fill:url(#linear-gradient);}.cls-2{fill:#7187db;}.cls-3{font-size:0.1px;font-family:MyriadPro-Regular, Myriad Pro;}.cls-4{fill:#6178cf;}.cls-5{fill:#667dd5;}.cls-6{fill:#fafafa;}.cls-7{fill:#c4d0fd;}.cls-8{fill:#fff;}.cls-9{fill:#eceefa;}.cls-10{fill:#dfe7fa;}</style><linearGradient id="linear-gradient" x1="250" y1="478.15" x2="250" y2="6.79" gradientUnits="userSpaceOnUse"><stop offset="0" stop-color="#4ad6d6"/><stop offset="0.54" stop-color="#42b5d6"/><stop offset="1" stop-color="#42a5d6"/></linearGradient></defs><g id="BACKGROUND"><rect class="cls-1" y="0.01" width="500" height="500"/></g><g id="DESIGNED_BY_FREEPIK" data-name="DESIGNED BY FREEPIK"><rect class="cls-2" width="500" height="500.02"/><text class="cls-3" transform="translate(132.33 170.87)">8</text><polygon class="cls-4" points="311.12 435.44 299.74 435.44 299.74 426.28 311.12 425.29 311.12 435.44"/><polygon class="cls-5" points="333 433.79 270.88 499.96 395.12 499.96 333 433.79"/><polygon class="cls-4" points="328.36 498.87 313.4 498.87 313.4 453.64 328.36 438.73 328.36 498.87"/><polygon class="cls-6" points="315.77 497.85 294.09 497.85 296.04 432.37 314.45 432.37 315.77 497.85"/><path class="cls-6" d="M296.19,429.22c0-4.35,4-7.89,8.92-7.89s8.91,3.54,8.91,7.89" transform="translate(0 0.01)"/><path class="cls-7" d="M309.58,429.23c.8-4.57-1.24-6.5-4.47-7.89,5.52,0,8.95,4.1,8.95,7.88Z" transform="translate(0 0.01)"/><polygon class="cls-7" points="316.15 498.49 312.01 497.85 309.58 432.37 314.45 432.37 316.15 498.49"/><polygon class="cls-8" points="264.1 431.13 200.29 499.72 327.91 499.72 264.1 431.13"/><polygon class="cls-9" points="209.18 463.05 183.55 499.71 234.81 499.71 209.18 463.05"/><polygon class="cls-10" points="234.52 499.35 230.49 467.54 220.22 478.52 234.52 499.35"/><circle class="cls-2" cx="307.1" cy="444.59" r="4.02"/></g></svg>