<?xml version="1.0" encoding="utf-8"?>
<!-- Generator: Adobe Illustrator 24.2.0, SVG Export Plug-In . SVG Version: 6.00 Build 0)  -->
<svg version="1.1" id="Layer_1" xmlns="http://www.w3.org/2000/svg" xmlns:xlink="http://www.w3.org/1999/xlink" x="0px" y="0px"
	 viewBox="0 0 231.36 171.7" style="enable-background:new 0 0 231.36 171.7;" xml:space="preserve">
<style type="text/css">
	.st0{fill:#fff;}
	@media (max-width: 600px){
	.st0{fill:#d5e1e8;}
	}
</style>
<g>
	<g>
		<path class="st0" d="M205.05,69.29c-0.78-0.67-19.55-16.74-44.97,0.02c0,0-21.35-16.73-40.93,0c-19.57-16.73-40.92,0-40.92,0
			c-25.43-16.77-44.2-0.7-44.97-0.02c27.63-48.75,85.89-59.85,85.89-59.85S177.42,20.55,205.05,69.29z"/>
	</g>
	<g>
		<path class="st0" d="M109.16,162.26c-7.49,0-13.58-6.09-13.58-13.58v-2.8c0-1.99,1.61-3.6,3.6-3.6c1.99,0,3.6,1.61,3.6,3.6v2.8
			c0,3.53,2.87,6.39,6.39,6.39c3.53,0,6.39-2.87,6.39-6.39V44.2c0-1.99,1.61-3.6,3.6-3.6c1.99,0,3.6,1.61,3.6,3.6v104.48
			C122.74,156.17,116.65,162.26,109.16,162.26z"/>
	</g>
</g>
</svg>
