<?xml version="1.0" encoding="utf-8"?>
<!-- Generator: Adobe Illustrator 24.2.0, SVG Export Plug-In . SVG Version: 6.00 Build 0)  -->
<svg version="1.1" id="Layer_1" xmlns="http://www.w3.org/2000/svg" xmlns:xlink="http://www.w3.org/1999/xlink" x="0px" y="0px"
	 viewBox="0 0 231.36 171.7" style="enable-background:new 0 0 231.36 171.7;" xml:space="preserve">
<style type="text/css">
	.st0{fill:#F8CA4D;}
</style>
<g>
	
		<ellipse transform="matrix(0.8941 -0.4479 0.4479 0.8941 -26.2013 60.9116)" class="st0" cx="115.68" cy="85.85" rx="30.67" ry="30.67"/>
	<g>
		<path class="st0" d="M115.68,43.53L115.68,43.53c-2.03,0-3.68-1.65-3.68-3.68V13.7c0-2.03,1.65-3.68,3.68-3.68l0,0
			c2.03,0,3.68,1.65,3.68,3.68v26.15C119.36,41.89,117.71,43.53,115.68,43.53z"/>
		<path class="st0" d="M115.68,161.67L115.68,161.67c-2.03,0-3.68-1.65-3.68-3.68v-26.15c0-2.03,1.65-3.68,3.68-3.68l0,0
			c2.03,0,3.68,1.65,3.68,3.68V158C119.36,160.03,117.71,161.67,115.68,161.67z"/>
	</g>
	<g>
		<path class="st0" d="M145.6,55.93L145.6,55.93c-1.44-1.44-1.44-3.76,0-5.2l18.49-18.49c1.44-1.44,3.76-1.44,5.2,0l0,0
			c1.44,1.44,1.44,3.76,0,5.2L150.8,55.93C149.37,57.36,147.04,57.36,145.6,55.93z"/>
		<path class="st0" d="M62.06,139.47L62.06,139.47c-1.44-1.44-1.44-3.76,0-5.2l18.49-18.49c1.44-1.44,3.76-1.44,5.2,0l0,0
			c1.44,1.44,1.44,3.76,0,5.2l-18.49,18.49C65.83,140.9,63.5,140.9,62.06,139.47z"/>
	</g>
	<g>
		<path class="st0" d="M158,85.85L158,85.85c0-2.03,1.65-3.68,3.68-3.68h26.15c2.03,0,3.68,1.65,3.68,3.68l0,0
			c0,2.03-1.65,3.68-3.68,3.68h-26.15C159.64,89.53,158,87.88,158,85.85z"/>
		<path class="st0" d="M39.86,85.85L39.86,85.85c0-2.03,1.65-3.68,3.68-3.68h26.15c2.03,0,3.68,1.65,3.68,3.68l0,0
			c0,2.03-1.65,3.68-3.68,3.68H43.53C41.5,89.53,39.86,87.88,39.86,85.85z"/>
	</g>
	<g>
		<path class="st0" d="M145.6,115.77L145.6,115.77c1.44-1.44,3.76-1.44,5.2,0l18.49,18.49c1.44,1.44,1.44,3.76,0,5.2l0,0
			c-1.44,1.44-3.76,1.44-5.2,0l-18.49-18.49C144.17,119.54,144.17,117.21,145.6,115.77z"/>
		<path class="st0" d="M62.06,32.24L62.06,32.24c1.44-1.44,3.76-1.44,5.2,0l18.49,18.49c1.44,1.44,1.44,3.76,0,5.2l0,0
			c-1.44,1.44-3.76,1.44-5.2,0L62.06,37.43C60.63,36,60.63,33.67,62.06,32.24z"/>
	</g>
</g>
</svg>
