<?xml version="1.0" encoding="utf-8"?>
<!-- Generator: Adobe Illustrator 24.2.0, SVG Export Plug-In . SVG Version: 6.00 Build 0)  -->
<svg version="1.1" id="Layer_1" xmlns="http://www.w3.org/2000/svg" x="0px" y="0px"
     viewBox="0 0 231.36 171.7" style="enable-background:new 0 0 231.36 171.7;" xml:space="preserve">
<style type="text/css">
	.st0{fill:#FFFFFF;}
	.st1{fill:#BBD6F1;}
	@media (max-width: 600px){
	.st0{fill:#d5e1e8;}
	}
</style>
<g>
	<path class="st0" d="M180.33,69.49c-0.08,0-0.16,0.02-0.24,0.02c1.54-3.57,2.41-7.5,2.41-11.63c0-16.21-13.14-29.35-29.35-29.35
		c-5.73,0-11.06,1.67-15.57,4.5c-6.11-14.85-20.71-25.31-37.76-25.31c-22.55,0-40.83,18.28-40.83,40.83c0,1.7,0.14,3.37,0.34,5.02
		c-0.11,0-0.23-0.02-0.34-0.02c-15.12,0-27.38,12.26-27.38,27.38s12.26,27.38,27.38,27.38h121.35c10.72,0,19.42-8.69,19.42-19.41
		C199.75,78.18,191.06,69.49,180.33,69.49z"/>
	<path class="st1" d="M85.41,156.16c-3.3,6.86-11.53,9.75-18.39,6.45c-6.86-3.3-9.75-11.53-6.45-18.39
		c3.3-6.86,24.63-19.41,24.63-19.41S88.71,149.29,85.41,156.16z"/>
	<path class="st1" d="M119.69,156.16c-3.3,6.86-11.53,9.75-18.39,6.45c-6.86-3.3-9.75-11.53-6.45-18.39
		c3.3-6.86,24.63-19.41,24.63-19.41S122.99,149.29,119.69,156.16z"/>
	<path class="st1" d="M154.45,156.16c-3.3,6.86-11.53,9.75-18.39,6.45c-6.86-3.3-9.75-11.53-6.45-18.39
		c3.3-6.86,24.63-19.41,24.63-19.41S157.75,149.29,154.45,156.16z"/>
</g>
</svg>
