<?xml version="1.0" encoding="utf-8"?>
<!-- Generator: Adobe Illustrator 24.2.0, SVG Export Plug-In . SVG Version: 6.00 Build 0)  -->
<svg version="1.1" id="Layer_1" xmlns="http://www.w3.org/2000/svg" x="0px" y="0px"
     viewBox="0 0 231.36 171.7" style="enable-background:new 0 0 231.36 171.7;" xml:space="preserve">
<style type="text/css">
	.st0{fill:#FFFFFF;}
	.st1{fill:#BBD6F1;}
	.st2{fill:#3B97D3;}
	@media (max-width: 600px){
	.st0{fill:#d5e1e8;}
	}
</style>
<g>
	<path class="st0" d="M128.34,98.85V14.96c0-7.71-6.25-13.96-13.96-13.96s-13.96,6.25-13.96,13.96v83.89
		c-13.34,5.49-22.74,18.61-22.74,33.93c0,20.27,16.43,36.7,36.7,36.7c20.27,0,36.7-16.43,36.7-36.7
		C151.08,117.46,141.68,104.34,128.34,98.85z"/>
	<path class="st1" d="M114.38,162.78c-16.54,0-30-13.46-30-30c0-12.2,7.3-23.09,18.59-27.74l4.15-1.71V14.96
		c0-4,3.25-7.26,7.26-7.26c4,0,7.26,3.25,7.26,7.26v88.38l4.15,1.71c11.29,4.65,18.59,15.54,18.59,27.74
		C144.38,149.32,130.92,162.78,114.38,162.78z"/>
	<path class="st2" d="M125.79,105.04l-4.15-1.71V89.98h-14.51v13.36l-4.15,1.71c-11.29,4.65-18.59,15.54-18.59,27.74
		c0,16.54,13.46,30,30,30s30-13.46,30-30C144.38,120.58,137.08,109.69,125.79,105.04z"/>
	<g>
		<path class="st0" d="M114.38,148.02L114.38,148.02c-1.43,0-2.6-1.17-2.6-2.6v-23.97c0-1.43,1.17-2.6,2.6-2.6l0,0
			c1.43,0,2.6,1.17,2.6,2.6v23.97C116.98,146.85,115.81,148.02,114.38,148.02z"/>
		<path class="st0" d="M102.34,141.65L102.34,141.65c-0.81-1.18-0.5-2.81,0.68-3.61l19.79-13.51c1.18-0.81,2.81-0.5,3.61,0.68l0,0
			c0.81,1.18,0.5,2.81-0.68,3.61l-19.79,13.51C104.77,143.14,103.14,142.84,102.34,141.65z"/>
		<path class="st0" d="M126.43,141.65L126.43,141.65c0.81-1.18,0.5-2.81-0.68-3.61l-19.79-13.51c-1.18-0.81-2.81-0.5-3.61,0.68l0,0
			c-0.81,1.18-0.5,2.81,0.68,3.61l19.79,13.51C124,143.14,125.62,142.84,126.43,141.65z"/>
	</g>
</g>
</svg>
