<?xml version="1.0" encoding="utf-8"?>
<!-- Generator: Adobe Illustrator 24.2.0, SVG Export Plug-In . SVG Version: 6.00 Build 0)  -->
<svg version="1.1" id="Layer_1" xmlns="http://www.w3.org/2000/svg" xmlns:xlink="http://www.w3.org/1999/xlink" x="0px" y="0px"
	 viewBox="0 0 231.36 171.7" style="enable-background:new 0 0 231.36 171.7;" xml:space="preserve">
<style type="text/css">
	.st0{fill:#fff;}
	@media (max-width: 600px){
	.st0{fill:#d5e1e8;}
	}
</style>
<g>
	<path class="st0" d="M54.11,137.35c-4,8.32-0.5,18.31,7.82,22.31s18.31,0.5,22.31-7.82c4-8.32-0.27-38.02-0.27-38.02
		S58.11,129.03,54.11,137.35z"/>
	<path class="st0" d="M98.7,137.35c-4,8.32-0.5,18.31,7.82,22.31c8.32,4,18.31,0.5,22.31-7.82c4-8.32-0.27-38.02-0.27-38.02
		S102.7,129.03,98.7,137.35z"/>
	<path class="st0" d="M117.73,97.98c4-8.32-0.27-38.02-0.27-38.02S91.6,75.17,87.6,83.49c-4,8.32-0.5,18.31,7.82,22.31
		C103.75,109.8,113.73,106.3,117.73,97.98z"/>
	<path class="st0" d="M143.97,105.8c8.32,4,18.31,0.5,22.31-7.82c4-8.32-0.27-38.02-0.27-38.02s-25.86,15.22-29.86,23.54
		C132.14,91.81,135.65,101.8,143.97,105.8z"/>
	<path class="st0" d="M158.78,48.42c4-8.32-0.27-38.02-0.27-38.02s-25.86,15.22-29.86,23.54c-4,8.32-0.5,18.31,7.82,22.31
		C144.8,60.24,154.78,56.74,158.78,48.42z"/>
	<path class="st0" d="M170.11,113.8c0,0-25.86,15.22-29.86,23.54c-4,8.32-0.5,18.31,7.82,22.31c8.32,4,18.31,0.5,22.31-7.82
		C174.37,143.51,170.11,113.8,170.11,113.8z"/>
</g>
</svg>
