<?xml version="1.0" encoding="utf-8"?>
<!-- Generator: Adobe Illustrator 24.2.0, SVG Export Plug-In . SVG Version: 6.00 Build 0)  -->
<svg version="1.1" id="Layer_1" xmlns="http://www.w3.org/2000/svg" xmlns:xlink="http://www.w3.org/1999/xlink" x="0px" y="0px"
	 viewBox="0 0 231.36 171.7" style="enable-background:new 0 0 231.36 171.7;" xml:space="preserve">
<style type="text/css">
	.st0{fill:#FFFFFF;}
	@media (max-width: 600px){
	.st0{fill:#d5e1e8;}
	}
</style>
<g>
	<path class="st0" d="M117.89,163.71h-4.42c-2.53,0-4.58-2.05-4.58-4.58V14.78c0-2.53,2.05-4.58,4.58-4.58h4.42
		c2.53,0,4.58,2.05,4.58,4.58v144.36C122.47,161.66,120.42,163.71,117.89,163.71z"/>
	<g>
		<path class="st0" d="M142.38,21.35c1.79,1.79,1.79,4.69,0,6.48l-26.58,26.6l-0.1-0.12l-0.12,0.12l-26.6-26.6
			c-1.79-1.79-1.79-4.69,0-6.48l3.12-3.12c1.79-1.79,4.69-1.79,6.48,0l13.87,13.87c1.79,1.79,4.69,1.79,6.48,0l13.85-13.86
			c1.79-1.79,4.69-1.79,6.48,0L142.38,21.35z"/>
		<path class="st0" d="M88.98,152.56c-1.79-1.79-1.79-4.69,0-6.48l26.58-26.6l0.1,0.12l0.12-0.12l26.6,26.6
			c1.79,1.79,1.79,4.69,0,6.48l-3.12,3.12c-1.79,1.79-4.69,1.79-6.48,0l-13.87-13.87c-1.79-1.79-4.69-1.79-6.48,0l-13.85,13.86
			c-1.79,1.79-4.69,1.79-6.48,0L88.98,152.56z"/>
	</g>
	<path class="st0" d="M38.92,89.16v-4.42c0-2.53,2.05-4.58,4.58-4.58h144.36c2.53,0,4.58,2.05,4.58,4.58v4.42
		c0,2.53-2.05,4.58-4.58,4.58H43.5C40.97,93.74,38.92,91.69,38.92,89.16z"/>
	<g>
		<path class="st0" d="M181.28,113.66c-1.79,1.79-4.69,1.79-6.48,0l-26.6-26.58l0.12-0.1l-0.12-0.12l26.6-26.6
			c1.79-1.79,4.69-1.79,6.48,0l3.12,3.12c1.79,1.79,1.79,4.69,0,6.48l-13.87,13.87c-1.79,1.79-1.79,4.69,0,6.48l13.86,13.85
			c1.79,1.79,1.79,4.69,0,6.48L181.28,113.66z"/>
		<path class="st0" d="M50.07,60.25c1.79-1.79,4.69-1.79,6.48,0l26.6,26.58l-0.12,0.1l0.12,0.12l-26.6,26.6
			c-1.79,1.79-4.69,1.79-6.48,0l-3.12-3.12c-1.79-1.79-1.79-4.69,0-6.48l13.87-13.87c1.79-1.79,1.79-4.69,0-6.48L46.96,69.84
			c-1.79-1.79-1.79-4.69,0-6.48L50.07,60.25z"/>
	</g>
	<path class="st0" d="M79.02,123.62L79.02,123.62c-1.8-1.8-1.8-4.7-0.01-6.49l66.85-66.85c1.79-1.79,4.69-1.79,6.48,0l0.01,0.01
		c1.79,1.79,1.79,4.69,0,6.48L85.5,123.62C83.71,125.41,80.81,125.41,79.02,123.62z"/>
	<g>
		<path class="st0" d="M159.77,66.88c0,2.53-2.05,4.58-4.58,4.58l-23.92,0.01l0.01-0.11h-0.12V47.45c0-2.53,2.05-4.58,4.59-4.58
			h0.01c2.53,0,4.58,2.05,4.58,4.58v10.28c0,2.53,2.05,4.58,4.58,4.58l10.26,0C157.72,62.3,159.77,64.35,159.77,66.88L159.77,66.88z
			"/>
		<path class="st0" d="M71.59,107.02c0-2.53,2.05-4.58,4.58-4.58l23.92-0.01l-0.01,0.11h0.12v23.92c0,2.53-2.05,4.58-4.59,4.58H95.6
			c-2.53,0-4.58-2.05-4.58-4.58v-10.28c0-2.53-2.05-4.58-4.58-4.58l-10.26,0C73.64,111.61,71.59,109.55,71.59,107.02L71.59,107.02z"
			/>
	</g>
	<path class="st0" d="M79.01,50.29L79.01,50.29c1.8-1.8,4.7-1.8,6.49-0.01l66.85,66.85c1.79,1.79,1.79,4.69,0,6.48l-0.01,0.01
		c-1.79,1.79-4.69,1.79-6.48,0L79.01,56.77C77.22,54.98,77.22,52.08,79.01,50.29z"/>
	<g>
		<path class="st0" d="M135.75,131.05c-2.53,0-4.58-2.05-4.58-4.58l-0.01-23.92l0.11,0.01v-0.12h23.92c2.53,0,4.58,2.05,4.58,4.59
			v0.01c0,2.53-2.05,4.58-4.58,4.58h-10.28c-2.53,0-4.58,2.05-4.58,4.58l0,10.26C140.33,128.99,138.28,131.05,135.75,131.05
			L135.75,131.05z"/>
		<path class="st0" d="M95.61,42.86c2.53,0,4.58,2.05,4.58,4.58l0.01,23.92l-0.11-0.01v0.12H76.17c-2.53,0-4.58-2.05-4.58-4.59
			l0-0.01c0-2.53,2.05-4.58,4.58-4.58h10.28c2.53,0,4.58-2.05,4.58-4.58l0-10.26C91.03,44.91,93.08,42.86,95.61,42.86L95.61,42.86z"
			/>
	</g>
</g>
</svg>
