<?xml version="1.0" encoding="utf-8"?>
<!-- Generator: Adobe Illustrator 24.2.0, SVG Export Plug-In . SVG Version: 6.00 Build 0)  -->
<svg version="1.1" id="Layer_1" xmlns="http://www.w3.org/2000/svg" x="0px" y="0px"
     viewBox="0 0 231.36 171.7" style="enable-background:new 0 0 231.36 171.7;" xml:space="preserve">
<style type="text/css">
	.st0{fill:#BBD6F1;}
	.st1{fill:#FFFFFF;}
	@media (max-width: 600px){
	.st1{fill:#d5e1e8;}
	}
</style>
<g>
	<path class="st0" d="M211.56,79.95c-0.08,0-0.15,0.02-0.22,0.02c1.42-3.28,2.21-6.89,2.21-10.69c0-14.9-12.08-26.98-26.98-26.98
		c-5.27,0-10.16,1.53-14.31,4.14c-5.62-13.65-19.03-23.27-34.71-23.27c-20.73,0-37.53,16.8-37.53,37.53c0,1.57,0.13,3.1,0.31,4.62
		c-0.11,0-0.21-0.02-0.31-0.02c-13.9,0-25.17,11.27-25.17,25.17c0,13.9,11.27,25.17,25.17,25.17h111.55
		c9.86,0,17.85-7.99,17.85-17.85C229.41,87.94,221.42,79.95,211.56,79.95z"/>
	<path class="st1" d="M166.84,103.43c-0.09,0-0.18,0.03-0.27,0.03c1.71-3.95,2.67-8.31,2.67-12.89c0-17.96-14.56-32.53-32.53-32.53
		c-6.35,0-12.25,1.85-17.26,4.99C112.68,46.58,96.5,34.98,77.6,34.98c-24.99,0-45.26,20.26-45.26,45.26c0,1.89,0.15,3.74,0.38,5.57
		c-0.13,0-0.25-0.02-0.38-0.02C15.59,85.78,2,99.37,2,116.13s13.59,30.34,30.34,30.34h134.5c11.88,0,21.52-9.63,21.52-21.52
		C188.36,113.06,178.72,103.43,166.84,103.43z"/>
</g>
</svg>
