<?xml version="1.0" encoding="utf-8"?>
<!-- Generator: Adobe Illustrator 24.2.0, SVG Export Plug-In . SVG Version: 6.00 Build 0)  -->
<svg version="1.1" id="Layer_1" xmlns="http://www.w3.org/2000/svg" xmlns:xlink="http://www.w3.org/1999/xlink" x="0px" y="0px"
	 viewBox="0 0 231.36 171.7" style="enable-background:new 0 0 231.36 171.7;" xml:space="preserve">
<style type="text/css">
	.st0{fill:#FFDC7C;}
	.st1{fill:#FFFFFF;}
</style>
<g>
	<path class="st0" d="M162.82,76.47c4.7,0,9.12-1.2,12.99-3.31c-6.39,6.89-15.53,11.19-25.65,11.19
		c-19.34,0-35.02-15.68-35.02-35.02c0-19.34,15.68-35.02,35.02-35.02c10.13,0,19.26,4.3,25.65,11.19
		c-3.86-2.11-8.29-3.31-12.99-3.31c-14.99,0-27.14,12.15-27.14,27.14C135.68,64.32,147.83,76.47,162.82,76.47z"/>
	<path class="st1" d="M180.33,118.56c-0.08,0-0.16,0.02-0.24,0.02c1.54-3.57,2.41-7.5,2.41-11.63c0-16.21-13.14-29.35-29.35-29.35
		c-5.73,0-11.06,1.67-15.57,4.5c-6.11-14.85-20.71-25.31-37.76-25.31c-22.55,0-40.83,18.28-40.83,40.83c0,1.7,0.14,3.37,0.34,5.02
		c-0.11,0-0.23-0.02-0.34-0.02c-15.12,0-27.38,12.26-27.38,27.38c0,15.12,12.26,27.38,27.38,27.38h121.35
		c10.72,0,19.42-8.69,19.42-19.41C199.75,127.26,191.06,118.56,180.33,118.56z"/>
</g>
</svg>
