<?xml version="1.0" encoding="utf-8"?>
<!-- Generator: Adobe Illustrator 24.2.0, SVG Export Plug-In . SVG Version: 6.00 Build 0)  -->
<svg version="1.1" id="Layer_1" xmlns="http://www.w3.org/2000/svg" xmlns:xlink="http://www.w3.org/1999/xlink" x="0px" y="0px"
	 viewBox="0 0 231.36 171.7" style="enable-background:new 0 0 231.36 171.7;" xml:space="preserve">
<style type="text/css">
	.st0{fill:#FFFFFF;}
</style>
<g>
	<path class="st0" d="M176.11,93.95c-0.08,0-0.16,0.02-0.24,0.02c1.54-3.57,2.41-7.5,2.41-11.63c0-16.21-13.14-29.35-29.35-29.35
		c-5.73,0-11.06,1.67-15.57,4.5c-6.11-14.85-20.71-25.31-37.76-25.31c-22.55,0-40.83,18.28-40.83,40.83c0,1.7,0.14,3.37,0.34,5.02
		c-0.11,0-0.23-0.02-0.34-0.02c-15.12,0-27.38,12.26-27.38,27.38s12.26,27.38,27.38,27.38h121.35c10.72,0,19.42-8.69,19.42-19.41
		C195.52,102.64,186.83,93.95,176.11,93.95z"/>
	<path class="st0" d="M161.01,38.92H98.96c-1.86,0-3.37-1.51-3.37-3.37l0,0c0-1.86,1.51-3.37,3.37-3.37h62.06
		c1.86,0,3.37,1.51,3.37,3.37l0,0C164.38,37.42,162.87,38.92,161.01,38.92z"/>
	<path class="st0" d="M211.24,38.92h-36.01c-1.86,0-3.37-1.51-3.37-3.37l0,0c0-1.86,1.51-3.37,3.37-3.37h36.01
		c1.86,0,3.37,1.51,3.37,3.37l0,0C214.61,37.42,213.1,38.92,211.24,38.92z"/>
	<path class="st0" d="M186.5,59.74h-37.12c-1.86,0-3.37-1.51-3.37-3.37l0,0c0-1.86,1.51-3.37,3.37-3.37h37.12
		c1.86,0,3.37,1.51,3.37,3.37l0,0C189.86,58.23,188.35,59.74,186.5,59.74z"/>
	<path class="st0" d="M211.05,59.74h-9.85c-1.86,0-3.37-1.51-3.37-3.37l0,0c0-1.86,1.51-3.37,3.37-3.37h9.85
		c1.86,0,3.37,1.51,3.37,3.37l0,0C214.42,58.23,212.91,59.74,211.05,59.74z"/>
	<path class="st0" d="M211.05,100.45h-61.68c-1.86,0-3.37-1.51-3.37-3.37l0,0c0-1.86,1.51-3.37,3.37-3.37h61.68
		c1.86,0,3.37,1.51,3.37,3.37l0,0C214.42,98.94,212.91,100.45,211.05,100.45z"/>
	<path class="st0" d="M211.05,132.78h-61.68c-1.86,0-3.37-1.51-3.37-3.37l0,0c0-1.86,1.51-3.37,3.37-3.37h61.68
		c1.86,0,3.37,1.51,3.37,3.37l0,0C214.42,131.27,212.91,132.78,211.05,132.78z"/>
</g>
</svg>
