<?xml version="1.0" encoding="utf-8"?>
<!-- Generator: Adobe Illustrator 24.2.0, SVG Export Plug-In . SVG Version: 6.00 Build 0)  -->
<svg version="1.1" id="Layer_1" xmlns="http://www.w3.org/2000/svg" xmlns:xlink="http://www.w3.org/1999/xlink" x="0px" y="0px"
	 viewBox="0 0 231.36 171.7" style="enable-background:new 0 0 231.36 171.7;" xml:space="preserve">
<style type="text/css">
	.st0{fill:#FFFFFF;}
</style>
<g>
	<path class="st0" d="M172.92,59.56c-0.08,0-0.15,0.02-0.22,0.02c1.39-3.22,2.17-6.77,2.17-10.5c0-14.64-11.87-26.5-26.5-26.5
		c-5.17,0-9.98,1.51-14.06,4.07c-5.52-13.41-18.7-22.86-34.1-22.86c-20.36,0-36.87,16.51-36.87,36.87c0,1.54,0.12,3.05,0.31,4.54
		c-0.1,0-0.2-0.02-0.31-0.02c-13.65,0-24.72,11.07-24.72,24.72s11.07,24.72,24.72,24.72h109.59c9.68,0,17.53-7.85,17.53-17.53
		C190.45,67.41,182.6,59.56,172.92,59.56z"/>
	<circle class="st0" cx="80.62" cy="118.73" r="5.41"/>
	<circle class="st0" cx="114.53" cy="118.73" r="5.41"/>
	<circle class="st0" cx="114.53" cy="162.21" r="5.41"/>
	<circle class="st0" cx="96.49" cy="140.02" r="5.41"/>
	<path class="st0" d="M138.34,140.02c0,2.99-2.42,5.41-5.41,5.41c-2.99,0-5.41-2.42-5.41-5.41c0-2.99,2.42-5.41,5.41-5.41
		C135.92,134.6,138.34,137.03,138.34,140.02z"/>
	<circle class="st0" cx="148.45" cy="118.73" r="5.41"/>
</g>
</svg>
