<?xml version="1.0" encoding="utf-8"?>
<!-- Generator: Adobe Illustrator 24.2.0, SVG Export Plug-In . SVG Version: 6.00 Build 0)  -->
<svg version="1.1" id="Layer_1" xmlns="http://www.w3.org/2000/svg" xmlns:xlink="http://www.w3.org/1999/xlink" x="0px" y="0px"
	 viewBox="0 0 231.36 171.7" style="enable-background:new 0 0 231.36 171.7;" xml:space="preserve">
<style type="text/css">
	.st0{fill:#FFFFFF;}
	.st1{fill:#BBD6F1;}
	.st2{fill:#E84231;}
</style>
<g>
	<path class="st0" d="M125.11,99V15.01c0-7.72-6.26-13.97-13.97-13.97c-7.72,0-13.97,6.26-13.97,13.97V99
		c-13.36,5.5-22.76,18.63-22.76,33.97c0,20.29,16.45,36.74,36.74,36.74c20.29,0,36.74-16.45,36.74-36.74
		C147.88,117.63,138.47,104.5,125.11,99z"/>
	<path class="st1" d="M111.14,162.99c-16.56,0-30.03-13.47-30.03-30.03c0-12.21,7.3-23.11,18.61-27.77l4.15-1.71V15.01
		c0-4.01,3.26-7.27,7.26-7.27s7.27,3.26,7.27,7.27v88.48l4.15,1.71c11.31,4.66,18.61,15.56,18.61,27.77
		C141.17,149.52,127.7,162.99,111.14,162.99z"/>
	<path class="st2" d="M122.56,105.2l-4.15-1.71V27.87h-14.53v75.61l-4.15,1.71c-11.31,4.66-18.61,15.56-18.61,27.77
		c0,16.56,13.47,30.03,30.03,30.03s30.03-13.47,30.03-30.03C141.17,120.75,133.86,109.85,122.56,105.2z"/>
	<path class="st0" d="M111.14,149.11c-22.66,0-5.33-27.46-5.33-27.46v6.36l5.33-12.71l5.32,12.71v-6.36
		C116.46,121.66,133.8,149.11,111.14,149.11z"/>
</g>
</svg>
