<?xml version="1.0" encoding="utf-8"?>
<!-- Generator: Adobe Illustrator 24.2.0, SVG Export Plug-In . SVG Version: 6.00 Build 0)  -->
<svg version="1.1" id="Layer_1" xmlns="http://www.w3.org/2000/svg" x="0px" y="0px"
     viewBox="0 0 231.36 171.7" style="enable-background:new 0 0 231.36 171.7;" xml:space="preserve">
<style type="text/css">
	.st0{fill:#FFDC7C;}
	.st1{fill:#fff;}
</style>
<g>
	<g>
		<ellipse class="st0" cx="74.48" cy="74.33" rx="28.91" ry="29.66"/>
		<g>
			<path class="st0" d="M74.48,33.41L74.48,33.41c-1.91,0-3.47-1.59-3.47-3.56V4.56C71.01,2.6,72.56,1,74.48,1l0,0
				c1.91,0,3.47,1.59,3.47,3.56v25.3C77.94,31.81,76.39,33.41,74.48,33.41z"/>
			<path class="st0" d="M74.48,147.67L74.48,147.67c-1.91,0-3.47-1.59-3.47-3.56v-25.3c0-1.96,1.55-3.56,3.47-3.56l0,0
				c1.91,0,3.47,1.59,3.47,3.56v25.3C77.94,146.08,76.39,147.67,74.48,147.67z"/>
		</g>
		<g>
			<path class="st0" d="M102.68,45.39L102.68,45.39c-1.35-1.39-1.35-3.64,0-5.03l17.43-17.89c1.35-1.39,3.55-1.39,4.9,0l0,0
				c1.35,1.39,1.35,3.64,0,5.03l-17.43,17.89C106.23,46.78,104.04,46.78,102.68,45.39z"/>
			<path class="st0" d="M23.93,126.19L23.93,126.19c-1.35-1.39-1.35-3.64,0-5.03l17.43-17.89c1.35-1.39,3.55-1.39,4.9,0l0,0
				c1.35,1.39,1.35,3.64,0,5.03l-17.43,17.89C27.48,127.58,25.29,127.58,23.93,126.19z"/>
		</g>
		<g>
			<path class="st0" d="M114.37,74.33L114.37,74.33c0-1.96,1.55-3.56,3.47-3.56h24.65c1.91,0,3.47,1.59,3.47,3.56l0,0
				c0,1.96-1.55,3.56-3.47,3.56h-24.65C115.92,77.89,114.37,76.3,114.37,74.33z"/>
			<path class="st0" d="M3,74.33L3,74.33c0-1.96,1.55-3.56,3.47-3.56h24.65c1.91,0,3.47,1.59,3.47,3.56l0,0
				c0,1.96-1.55,3.56-3.47,3.56H6.47C4.55,77.89,3,76.3,3,74.33z"/>
		</g>
		<g>
			<path class="st0" d="M102.68,103.27L102.68,103.27c1.35-1.39,3.55-1.39,4.9,0l17.43,17.89c1.35,1.39,1.35,3.64,0,5.03l0,0
				c-1.35,1.39-3.55,1.39-4.9,0l-17.43-17.89C101.33,106.91,101.33,104.66,102.68,103.27z"/>
			<path class="st0" d="M23.93,22.48L23.93,22.48c1.35-1.39,3.55-1.39,4.9,0l17.43,17.89c1.35,1.39,1.35,3.64,0,5.03l0,0
				c-1.35,1.39-3.55,1.39-4.9,0L23.93,27.51C22.58,26.12,22.58,23.87,23.93,22.48z"/>
		</g>
	</g>
	<path class="st1" d="M206.93,126.18c-0.09,0-0.18,0.03-0.27,0.03c1.71-4.07,2.67-8.54,2.67-13.25c0-18.47-14.59-33.45-32.6-33.45
		c-6.36,0-12.28,1.9-17.3,5.13c-6.79-16.93-23-28.85-41.95-28.85c-25.05,0-45.36,20.83-45.36,46.54c0,1.94,0.15,3.85,0.38,5.73
		c-0.13,0-0.25-0.02-0.38-0.02c-16.8,0-30.41,13.97-30.41,31.2s13.62,31.2,30.41,31.2h134.8c11.91,0,21.57-9.91,21.57-22.13
		C228.5,136.08,218.84,126.18,206.93,126.18z"/>
</g>
</svg>
