<?xml version="1.0" standalone="no"?>
<!DOCTYPE svg PUBLIC "-//W3C//DTD SVG 20010904//EN"
 "http://www.w3.org/TR/2001/REC-SVG-20010904/DTD/svg10.dtd">
<svg version="1.0" xmlns="http://www.w3.org/2000/svg"
 width="924.000000pt" height="924.000000pt" viewBox="0 0 924.000000 924.000000"
 preserveAspectRatio="xMidYMid meet">
<metadata>
Created by potrace 1.11, written by Peter Selinger 2001-2013
</metadata>
<g transform="translate(0.000000,924.000000) scale(0.100000,-0.100000)"
fill="#000000" stroke="none">
<path d="M2910 7991 c-20 -10 -43 -35 -55 -58 -19 -39 -20 -58 -19 -569 0
-291 4 -540 8 -554 26 -82 126 -119 198 -74 74 47 71 27 71 604 0 283 -3 534
-6 557 -14 91 -114 139 -197 94z"/>
<path d="M1035 7190 c-67 -15 -110 -59 -118 -120 -4 -36 9 -87 27 -106 11 -12
408 -419 609 -627 141 -144 185 -165 261 -125 60 32 89 114 63 177 -8 18 -115
136 -238 263 -123 126 -287 294 -364 373 -146 150 -186 177 -240 165z"/>
<path d="M4855 7184 c-40 -13 -50 -23 -599 -586 -93 -95 -175 -189 -183 -207
-30 -70 14 -172 80 -187 40 -10 45 -10 84 -2 34 8 34 8 451 436 346 356 330
337 339 385 22 108 -72 196 -172 161z"/>
<path d="M2908 6265 c-2 -2 -37 -6 -77 -9 -41 -4 -79 -10 -83 -12 -5 -3 -21
-8 -36 -10 -43 -8 -187 -58 -190 -66 -2 -5 -10 -8 -17 -8 -8 0 -37 -13 -65
-30 -28 -16 -53 -30 -56 -30 -5 0 -64 -40 -74 -50 -3 -3 -22 -18 -44 -34 -46
-34 -148 -138 -185 -186 -14 -19 -29 -37 -32 -40 -27 -22 -133 -225 -159 -305
-7 -22 -15 -47 -18 -55 -3 -8 -6 -17 -6 -20 -1 -3 -5 -11 -10 -18 -4 -7 -6
-16 -3 -19 3 -3 2 -15 -3 -27 -23 -61 -33 -335 -17 -450 10 -64 38 -178 48
-191 4 -6 10 -22 12 -36 3 -14 22 -61 43 -104 148 -312 434 -553 749 -631 90
-22 96 -23 132 -26 18 -1 33 -6 33 -10 0 -4 7 -5 15 -2 16 7 16 7 20 -51 1
-22 3 -51 5 -65 4 -46 2 -48 -62 -49 -64 -2 -82 -4 -153 -17 -22 -4 -47 -8
-55 -9 -21 -3 -133 -36 -145 -43 -5 -4 -16 -7 -23 -8 -22 -4 -145 -65 -190
-95 -24 -16 -45 -29 -48 -29 -10 0 -148 -116 -186 -156 -136 -141 -229 -292
-291 -469 -77 -219 -92 -475 -41 -695 9 -36 17 -72 19 -80 20 -81 105 -262
161 -341 19 -27 34 -51 34 -54 0 -11 141 -159 211 -221 64 -56 299 -197 299
-179 0 3 10 -1 23 -9 19 -12 106 -40 162 -52 83 -18 129 -25 198 -29 43 -3 83
-7 87 -10 5 -3 11 -1 14 4 4 5 18 6 34 2 15 -4 42 -4 60 0 17 4 32 3 32 -2 0
-5 11 -4 25 1 15 6 27 6 30 0 3 -6 15 -6 29 0 13 5 26 6 30 3 7 -7 96 -10 96
-3 0 3 14 5 30 5 17 0 30 -3 30 -7 0 -4 10 -4 22 1 13 4 35 5 50 0 16 -4 28
-5 28 -1 0 4 14 7 30 7 17 0 30 -4 30 -8 0 -5 5 -5 11 -2 13 9 107 10 115 2 3
-3 17 -2 30 3 14 6 26 6 29 0 4 -6 13 -7 24 -1 10 6 23 6 31 1 8 -5 21 -5 30
0 9 5 23 4 32 -1 10 -6 19 -6 23 0 3 6 15 7 28 2 12 -5 32 -5 44 0 13 5 25 4
28 -1 4 -6 13 -7 24 -1 10 6 23 6 31 1 8 -5 21 -5 30 0 9 5 23 4 32 -1 10 -6
19 -6 23 0 3 6 15 7 29 1 12 -4 29 -4 36 0 8 5 18 6 23 3 11 -7 87 -10 87 -3
0 3 14 5 30 5 17 0 30 -3 30 -7 0 -4 10 -4 22 1 13 4 35 5 50 0 16 -4 28 -5
28 -1 0 4 14 7 30 7 17 0 30 -4 30 -8 0 -5 5 -5 11 -2 13 9 107 10 115 2 3 -3
16 -2 28 3 12 4 29 4 38 -1 10 -6 19 -6 22 0 4 6 18 6 36 1 19 -5 30 -5 30 1
0 6 4 7 10 4 9 -5 97 -10 110 -5 16 5 70 4 70 -2 0 -4 14 -3 30 2 18 5 30 5
30 0 0 -6 10 -6 25 0 15 6 27 6 30 0 3 -6 15 -6 30 0 13 5 26 6 29 1 3 -4 28
-5 55 -1 28 3 56 3 63 -1 6 -4 21 -4 33 1 11 4 28 4 37 -1 10 -6 19 -6 22 0 4
6 18 6 36 1 19 -5 30 -5 30 1 0 6 4 7 10 4 9 -5 97 -10 110 -5 16 5 70 4 70
-2 0 -4 14 -3 30 2 18 5 30 5 30 0 0 -6 10 -6 25 0 15 6 27 6 30 0 3 -6 15 -6
29 0 13 5 26 6 30 3 7 -7 96 -10 96 -3 0 3 14 5 30 5 17 0 30 -3 30 -7 0 -4
10 -4 22 1 13 4 35 5 50 0 16 -4 28 -5 28 -1 0 4 14 7 30 7 17 0 30 -4 30 -8
0 -5 5 -5 11 -2 13 9 107 10 115 2 3 -3 17 -2 30 3 14 6 26 6 29 0 4 -6 13 -7
24 -1 10 6 23 6 31 1 8 -5 21 -5 30 0 9 5 23 4 32 -1 10 -6 19 -6 23 0 3 6 15
7 28 2 12 -5 32 -5 44 0 13 5 25 4 28 -1 4 -6 13 -7 24 -1 10 6 23 6 31 1 8
-5 21 -5 30 0 9 5 23 4 32 -1 10 -6 19 -6 23 0 3 6 15 7 29 1 12 -4 29 -4 36
0 8 5 18 6 23 3 11 -7 87 -10 87 -3 0 3 14 5 30 5 17 0 30 -3 30 -7 0 -4 10
-4 22 1 13 4 35 5 50 0 16 -4 28 -5 28 -1 0 4 14 7 30 7 17 0 30 -4 30 -8 0
-5 5 -5 11 -2 13 9 107 10 115 2 3 -3 16 -2 28 3 12 4 29 4 38 -1 10 -6 19 -6
22 0 4 6 18 6 36 1 19 -5 30 -5 30 1 0 6 4 7 10 4 9 -5 97 -10 110 -5 16 5 70
4 70 -2 0 -4 14 -3 30 2 18 5 30 5 30 0 0 -6 10 -6 25 0 15 6 27 6 30 0 3 -6
15 -6 30 0 13 5 26 6 29 1 3 -4 28 -5 55 -1 28 3 56 3 63 -1 6 -4 21 -4 33 1
11 4 28 4 37 -1 10 -6 19 -6 22 0 4 6 18 6 36 1 19 -5 30 -5 30 1 0 6 5 7 10
4 13 -8 118 -10 126 -3 3 4 19 2 35 -2 16 -5 29 -5 29 0 0 5 12 5 28 1 15 -4
39 -4 55 0 15 4 27 4 27 1 0 -14 162 2 260 25 36 8 89 26 118 39 29 13 57 24
62 24 6 0 10 5 10 10 0 6 7 10 14 10 41 0 286 222 286 259 0 6 4 11 9 11 5 0
14 13 21 30 7 16 16 30 21 30 5 0 8 3 7 7 -1 5 7 26 19 48 66 127 107 372 82
495 -4 19 -10 53 -13 75 -28 185 -171 415 -331 531 -22 16 -42 31 -45 35 -6 6
-138 71 -190 93 -33 14 -55 18 -143 32 -21 3 -46 7 -55 9 -9 2 -34 4 -55 4
-36 1 -37 2 -25 24 7 12 13 24 13 27 0 3 8 28 18 55 16 50 41 148 52 215 5 29
8 67 17 215 1 13 -11 153 -16 185 -49 340 -222 646 -486 859 -25 20 -47 39
-50 42 -20 24 -233 139 -257 139 -7 0 -13 4 -13 10 0 5 -3 9 -7 8 -5 -1 -48
11 -98 27 -49 15 -100 29 -112 31 -26 3 -99 14 -128 21 -33 6 -216 6 -275 -1
-71 -9 -199 -35 -225 -46 -11 -5 -38 -14 -60 -21 -48 -14 -187 -80 -232 -109
l-32 -21 -42 88 c-136 279 -298 487 -529 677 -84 68 -285 189 -400 240 -49 21
-168 65 -194 71 -11 3 -54 14 -94 24 -41 11 -92 22 -115 26 -23 3 -62 9 -87
13 -54 8 -375 8 -445 0 -116 -15 -320 -67 -422 -110 -16 -6 -31 -12 -35 -12
-3 -1 -10 -4 -14 -8 -12 -13 -24 -9 -24 7 0 8 -4 15 -8 15 -5 0 -14 11 -20 25
-7 14 -16 31 -22 38 -94 117 -122 149 -160 185 -67 64 -155 129 -240 175 -41
23 -77 42 -80 43 -3 0 -23 8 -45 18 -56 24 -210 65 -275 72 -57 6 -208 12
-212 9z"/>
<path d="M229 5216 c-5 -6 -9 -7 -9 -2 0 12 -54 -24 -74 -51 -46 -62 -19 -175
49 -207 35 -17 78 -18 559 -18 515 0 522 0 558 21 92 55 89 195 -7 245 -36 18
-61 19 -552 20 -312 1 -518 -3 -524 -8z"/>
<path d="M1701 3954 c-18 -7 -79 -62 -137 -121 -629 -642 -651 -667 -648 -718
5 -76 34 -117 100 -140 65 -22 97 -5 214 115 519 531 623 640 638 666 20 33
28 87 15 106 -4 7 -8 17 -8 21 0 14 -68 77 -84 78 -9 1 -26 3 -37 4 -12 1 -36
-4 -53 -11z"/>
</g>
</svg>
