<?xml version="1.0" encoding="utf-8"?>
<!-- Generator: Adobe Illustrator 24.2.0, SVG Export Plug-In . SVG Version: 6.00 Build 0)  -->
<svg version="1.1" id="Layer_1" xmlns="http://www.w3.org/2000/svg" x="0px" y="0px"
     viewBox="0 0 231.36 171.7" style="enable-background:new 0 0 231.36 171.7;" xml:space="preserve">
<style type="text/css">
	.st0{fill:#fff;}
	.st1{fill:#FFDC7C;}
	@media (max-width: 600px){
	.st0{fill:#d5e1e8;}
	}
</style>
<g>
	<path class="st0" d="M172.25,57.22c-0.07,0-0.14,0.02-0.21,0.02c1.35-3.12,2.11-6.56,2.11-10.18c0-14.18-11.5-25.68-25.68-25.68
		c-5.01,0-9.67,1.46-13.63,3.94c-5.35-12.99-18.12-22.15-33.04-22.15c-19.73,0-35.73,16-35.73,35.73c0,1.49,0.12,2.95,0.3,4.4
		c-0.1,0-0.2-0.01-0.3-0.01c-13.23,0-23.95,10.72-23.95,23.95S52.84,91.2,66.07,91.2h106.18c9.38,0,16.99-7.61,16.99-16.99
		C189.24,64.83,181.63,57.22,172.25,57.22z"/>
	<path class="st0" d="M73.98,133.05c-2.89,6-10.09,8.53-16.1,5.65c-6-2.89-8.53-10.09-5.65-16.1c2.89-6,21.55-16.99,21.55-16.99
		S76.86,127.05,73.98,133.05z"/>
	<path class="st0" d="M179.08,133.05c-2.89,6-10.09,8.53-16.1,5.65c-6-2.89-8.53-10.09-5.65-16.1c2.89-6,21.55-16.99,21.55-16.99
		S181.97,127.05,179.08,133.05z"/>
	<polygon class="st1" points="106.16,101.46 95.23,134.74 110.3,134.74 100.53,168.52 136.13,120.84 117.75,120.84 124.7,101.46 	
		"/>
</g>
</svg>
