<?xml version="1.0" encoding="utf-8"?>
<!-- Generator: Adobe Illustrator 24.2.0, SVG Export Plug-In . SVG Version: 6.00 Build 0)  -->
<svg version="1.1" id="Layer_1" xmlns="http://www.w3.org/2000/svg" xmlns:xlink="http://www.w3.org/1999/xlink" x="0px" y="0px"
	 viewBox="0 0 231.36 171.7" style="enable-background:new 0 0 231.36 171.7;" xml:space="preserve">
<style type="text/css">
	.st0{fill:#BBD6F1;}
	.st1{fill:#FFDC7C;}
</style>
<g>
	<path class="st0" d="M175.69,61.12c-0.08,0-0.15,0.02-0.23,0.02c1.43-3.31,2.23-6.96,2.23-10.79c0-15.04-12.19-27.24-27.24-27.24
		c-5.32,0-10.26,1.55-14.45,4.18C130.33,13.51,116.79,3.8,100.96,3.8c-20.93,0-37.9,16.97-37.9,37.9c0,1.58,0.13,3.13,0.32,4.66
		c-0.11,0-0.21-0.02-0.32-0.02c-14.03,0-25.41,11.38-25.41,25.41s11.38,25.41,25.41,25.41h112.62c9.95,0,18.02-8.07,18.02-18.02
		C193.7,69.19,185.64,61.12,175.69,61.12z"/>
	<polygon class="st1" points="107.18,108.05 97.43,137.75 110.88,137.75 102.16,167.9 133.93,125.34 117.53,125.34 123.73,108.05 	
		"/>
</g>
</svg>
